<svg xmlns="http://www.w3.org/2000/svg" width="54.102" height="54.102"><circle cx="1.461" cy="1.461" transform="translate(32.367 19.009)" fill="#e7e5d8" r="1.461"/><path d="M27.051 23.02a4.031 4.031 0 11-4.031 4.031 4.035 4.035 0 014.031-4.031m0-2.381a6.412 6.412 0 106.407 6.416 6.412 6.412 0 00-6.412-6.412z" fill="#e7e5d8"/><path d="M34.781 17.079a2.2 2.2 0 012.2 2.2v15.458a2.2 2.2 0 01-2.2 2.2H19.323a2.2 2.2 0 01-2.2-2.2V19.279a2.2 2.2 0 012.2-2.2h15.458m0-2.381H19.323a4.581 4.581 0 00-4.581 4.581v15.458a4.581 4.581 0 004.581 4.581h15.458a4.581 4.581 0 004.581-4.581V19.279a4.581 4.581 0 00-4.581-4.581z" fill="#e7e5d8"/></svg>